<svg id="Слой_1" data-name="Слой 1" xmlns="http://www.w3.org/2000/svg" viewBox="0 0 495.99 495.99"><defs><style>.cls-1{fill:#fff;}</style></defs><path class="cls-1" d="M546,604.57a63.92,63.92,0,1,1-127.84,0A120.23,120.23,0,0,0,297.9,484.33a63.93,63.93,0,1,1,63.93-63.93A120.23,120.23,0,0,0,482.07,540.65,63.89,63.89,0,0,1,546,604.57Z" transform="translate(-50.01 -172.51)"/><path class="cls-1" d="M545.8,420.4c0,1.94,0,3.86-.07,5.79,0,0,0,0,0,0a63.92,63.92,0,0,1-127.58-5.83A120.24,120.24,0,1,0,297.9,540.65a63.92,63.92,0,0,1,5.83,127.58h0c-1.93,0-3.85.07-5.79.07s-3.86,0-5.78-.07h-.05A247.75,247.75,0,0,1,50,420.4C50,283.49,161,172.51,297.9,172.51A247.75,247.75,0,0,1,545.73,414.57s0,0,0,.05C545.77,416.54,545.8,418.47,545.8,420.4Z" transform="translate(-50.01 -172.51)"/></svg>