<svg id="Слой_1" data-name="Слой 1" xmlns="http://www.w3.org/2000/svg" viewBox="0 0 501 500.98"><defs><style>.cls-1{fill:none;stroke:aqua;stroke-miterlimit:10;stroke-width:5px;}</style></defs><path class="cls-1" d="M-405.64,419.08A63.92,63.92,0,0,1-469.56,483a63.92,63.92,0,0,1-63.92-63.92A120.23,120.23,0,0,0-653.7,298.84h0a63.93,63.93,0,0,1-63.93-63.93A63.93,63.93,0,0,1-653.74,171a63.93,63.93,0,0,1,63.93,63.93h0A120.23,120.23,0,0,0-469.6,355.16h0A63.9,63.9,0,0,1-405.64,419Z" transform="translate(904.14 15.48)"/><path class="cls-1" d="M-405.84,234.91c0,1.94,0,3.86-.07,5.79h0a63.92,63.92,0,0,1-69.42,57.9,63.91,63.91,0,0,1-58.16-63.73A120.24,120.24,0,0,0-653.78,114.68,120.24,120.24,0,0,0-774,235,120.24,120.24,0,0,0-653.74,355.16a63.92,63.92,0,0,1,64,63.85,63.93,63.93,0,0,1-58.16,63.73h0c-1.93,0-3.85.07-5.79.07s-3.86,0-5.78-.07h0c-134.66-3.07-242.19-113.14-242.11-247.83C-901.64,98-790.64-13-653.74-13-519.08-13.06-409,94.45-405.91,229.08v0C-405.87,231.05-405.84,233-405.84,234.91Z" transform="translate(904.14 15.48)"/></svg>