<?xml version="1.0" encoding="utf-8"?>
<!-- Generator: Adobe Illustrator 25.0.0, SVG Export Plug-In . SVG Version: 6.00 Build 0)  -->
<svg version="1.1" id="Слой_1" xmlns="http://www.w3.org/2000/svg" xmlns:xlink="http://www.w3.org/1999/xlink" x="0px" y="0px"
	 viewBox="0 0 595.28 556" style="enable-background:new 0 0 595.28 556;" xml:space="preserve">
<g>
	<path d="M545.99,456.57c0,35.31-28.62,63.92-63.92,63.92c-24.97,0-46.6-14.32-57.11-35.19c-4.36-8.64-6.81-18.4-6.81-28.73
		c0-36.96-16.67-70.03-42.91-92.09c-20.91-17.57-47.88-28.16-77.33-28.16c-35.31,0-63.92-28.62-63.92-63.92
		c0-35.31,28.62-63.92,63.92-63.92s63.92,28.62,63.92,63.92c0,29.45,10.59,56.42,28.16,77.33c22.06,26.24,55.13,42.91,92.09,42.91
		c10.34,0,20.1,2.46,28.73,6.81C531.67,409.97,545.99,431.6,545.99,456.57z"/>
	<path d="M545.8,272.4c0,1.93-0.02,3.86-0.07,5.78c0.01,0.02,0,0.03,0,0.05c-2.95,32.58-30.32,58.09-63.66,58.09
		c-35.31,0-63.92-28.62-63.92-63.92c0-29.45-10.59-56.42-28.16-77.33c-22.05-26.24-55.12-42.91-92.08-42.91
		c-66.41,0-120.24,53.84-120.24,120.24c0,36.96,16.67,70.03,42.91,92.08c20.91,17.58,47.88,28.16,77.33,28.16
		c35.31,0,63.92,28.62,63.92,63.92c0,33.34-25.51,60.71-58.09,63.66h-0.05c-1.93,0.05-3.85,0.07-5.78,0.07
		c-1.93,0-3.86-0.02-5.78-0.07h-0.05c-39.3-0.9-76.34-10.95-109.07-28.11c-79.06-41.43-133-124.27-133-219.71
		c0-136.91,110.98-247.9,247.9-247.9c95.45,0,178.29,53.94,219.71,133c17.16,32.73,27.21,69.76,28.11,109.07
		c0,0.02,0.01,0.03,0,0.05C545.77,268.54,545.8,270.47,545.8,272.4z"/>
</g>
</svg>
