<?xml version="1.0" encoding="UTF-8"?>
<svg xmlns="http://www.w3.org/2000/svg" xmlns:xlink="http://www.w3.org/1999/xlink" width="52px" height="50px" viewBox="0 0 52 50" version="1.1">
<g id="surface1">
<path style="fill-rule:nonzero;fill:rgb(100%,100%,100%);fill-opacity:1;stroke-width:3;stroke-linecap:butt;stroke-linejoin:miter;stroke:rgb(0%,0%,0%);stroke-opacity:1;stroke-miterlimit:10;" d="M 546.001289 468.578078 C 546.001289 503.89047 517.382057 532.487282 482.055192 532.487282 C 457.102799 532.487282 435.459505 518.166639 424.95088 497.308312 C 420.613278 488.680347 418.153813 478.896056 418.153813 468.578078 C 418.153813 431.620145 401.474166 398.531455 375.224964 376.472328 C 354.341868 358.905079 327.377186 348.320256 297.90832 348.320256 C 262.581455 348.320256 234.006941 319.678971 234.006941 284.411052 C 234.006941 249.098659 262.626173 220.501847 297.90832 220.501847 C 333.190467 220.501847 361.809699 249.098659 361.809699 284.411052 C 361.809699 313.852871 372.407759 340.804143 389.981756 361.751418 C 412.072226 387.991106 445.118495 404.624399 482.09991 404.624399 C 492.429664 404.624399 502.17809 407.114946 510.808577 411.428928 C 531.691673 421.969277 546.001289 443.583664 546.001289 468.578078 Z M 546.001289 468.578078 " transform="matrix(0.0873538,0,0,0.0878321,0,0.0117604)"/>
<path style="fill-rule:nonzero;fill:rgb(100%,100%,100%);fill-opacity:1;stroke-width:3;stroke-linecap:butt;stroke-linejoin:miter;stroke:rgb(0%,0%,0%);stroke-opacity:1;stroke-miterlimit:10;" d="M 545.777701 284.411052 C 545.777701 286.323436 545.777701 288.280294 545.732984 290.192678 C 545.732984 290.192678 545.732984 290.192678 545.732984 290.237152 C 542.781625 322.792154 515.414485 348.320256 482.055192 348.320256 C 446.773045 348.320256 418.153813 319.678971 418.153813 284.411052 C 418.153813 254.969233 407.555753 227.973487 389.981756 207.070685 C 367.936004 180.830998 334.889734 164.153231 297.90832 164.153231 C 231.502758 164.153231 177.662827 218.011301 177.662827 284.411052 C 177.662827 321.368984 194.342474 354.413201 220.591676 376.472328 C 241.474771 394.039576 268.439454 404.624399 297.90832 404.624399 C 333.235185 404.624399 361.809699 433.265685 361.809699 468.578078 C 361.809699 501.889138 336.320696 529.285151 303.721601 532.220438 L 303.676884 532.220438 C 301.754029 532.264912 299.831175 532.309386 297.90832 532.309386 C 295.985465 532.309386 294.062611 532.264912 292.139756 532.220438 L 292.095038 532.220438 C 252.788312 531.330957 215.76218 521.279823 183.028933 504.112841 C 103.968304 462.66303 49.994221 379.852355 49.994221 284.411052 C 49.994221 147.475463 160.983181 36.512718 297.90832 36.512718 C 393.38029 36.512718 476.197193 90.459736 517.605644 169.490116 C 534.777184 202.223014 544.838633 239.269895 545.732984 278.584952 C 545.732984 278.584952 545.732984 278.584952 545.732984 278.629426 C 545.777701 280.54181 545.777701 282.454194 545.777701 284.411052 Z M 545.777701 284.411052 " transform="matrix(0.0873538,0,0,0.0878321,0,0.0117604)"/>
</g>
</svg>
